<svg width="36" height="36" viewBox="0 0 36 36" fill="none" xmlns="http://www.w3.org/2000/svg">
<circle cx="18" cy="18" r="18" fill="#BB6BD9"/>
<path d="M27.6599 16.25L18.6599 8.24996C18.4774 8.08964 18.2428 8.00122 17.9999 8.00122C17.757 8.00122 17.5224 8.08964 17.3399 8.24996L8.33987 16.25C8.18691 16.3853 8.07904 16.5642 8.03077 16.7626C7.98251 16.961 7.99615 17.1695 8.06987 17.36C8.14239 17.5479 8.26998 17.7095 8.43592 17.8237C8.60187 17.9379 8.79843 17.9994 8.99987 18H9.99987V27C9.99987 27.2652 10.1052 27.5195 10.2928 27.7071C10.4803 27.8946 10.7347 28 10.9999 28H24.9999C25.2651 28 25.5194 27.8946 25.707 27.7071C25.8945 27.5195 25.9999 27.2652 25.9999 27V18H26.9999C27.2013 17.9994 27.3979 17.9379 27.5638 17.8237C27.7298 17.7095 27.8574 17.5479 27.9299 17.36C28.0036 17.1695 28.0172 16.961 27.969 16.7626C27.9207 16.5642 27.8128 16.3853 27.6599 16.25V16.25ZM18.9999 26H16.9999V23C16.9999 22.7347 17.1052 22.4804 17.2928 22.2928C17.4803 22.1053 17.7347 22 17.9999 22C18.2651 22 18.5194 22.1053 18.707 22.2928C18.8945 22.4804 18.9999 22.7347 18.9999 23V26ZM23.9999 26H20.9999V23C20.9999 22.2043 20.6838 21.4412 20.1212 20.8786C19.5586 20.316 18.7955 20 17.9999 20C17.2042 20 16.4412 20.316 15.8786 20.8786C15.3159 21.4412 14.9999 22.2043 14.9999 23V26H11.9999V18H23.9999V26ZM11.6299 16L17.9999 10.34L24.3699 16H11.6299Z" fill="white"/>
</svg>
