<svg width="36" height="36" viewBox="0 0 36 36" fill="none" xmlns="http://www.w3.org/2000/svg">
<circle cx="18" cy="18" r="18" fill="#27AE60"/>
<path d="M14.5 25C14.2033 25 13.9133 25.088 13.6666 25.2528C13.42 25.4176 13.2277 25.6519 13.1142 25.926C13.0006 26.2001 12.9709 26.5017 13.0288 26.7926C13.0867 27.0836 13.2296 27.3509 13.4393 27.5607C13.6491 27.7704 13.9164 27.9133 14.2074 27.9712C14.4983 28.0291 14.7999 27.9993 15.074 27.8858C15.3481 27.7723 15.5824 27.58 15.7472 27.3334C15.912 27.0867 16 26.7967 16 26.5C16 26.1022 15.842 25.7206 15.5607 25.4393C15.2794 25.158 14.8978 25 14.5 25ZM25 22H13C12.7348 22 12.4804 21.8946 12.2929 21.7071C12.1054 21.5196 12 21.2652 12 21C12 20.7348 12.1054 20.4804 12.2929 20.2929C12.4804 20.1054 12.7348 20 13 20H21.491C22.1425 19.998 22.7758 19.7848 23.2959 19.3925C23.8161 19.0002 24.195 18.4499 24.376 17.824L25.961 12.274C26.0034 12.1253 26.0107 11.9687 25.9823 11.8167C25.954 11.6647 25.8907 11.5213 25.7976 11.3978C25.7045 11.2743 25.584 11.1741 25.4456 11.1051C25.3072 11.0361 25.1547 11.0001 25 11H12.74C12.5328 10.417 12.1508 9.91213 11.6462 9.55421C11.1415 9.19629 10.5387 9.00275 9.92 9H9C8.73478 9 8.48043 9.10536 8.29289 9.29289C8.10536 9.48043 8 9.73478 8 10C8 10.2652 8.10536 10.5196 8.29289 10.7071C8.48043 10.8946 8.73478 11 9 11H9.921C10.1382 11.0007 10.3492 11.0717 10.5227 11.2024C10.6961 11.3331 10.8225 11.5164 10.883 11.725L11.038 12.27V12.275L12.679 18.017C11.9152 18.0987 11.2118 18.4702 10.7138 19.0551C10.2157 19.64 9.96107 20.3936 10.0022 21.1607C10.0434 21.9278 10.3772 22.6499 10.935 23.1781C11.4927 23.7064 12.2318 24.0005 13 24H25C25.2652 24 25.5196 23.8946 25.7071 23.7071C25.8946 23.5196 26 23.2652 26 23C26 22.7348 25.8946 22.4804 25.7071 22.2929C25.5196 22.1054 25.2652 22 25 22ZM23.674 13L22.454 17.274C22.3936 17.4829 22.2671 17.6666 22.0935 17.7975C21.9199 17.9284 21.7085 17.9995 21.491 18H14.754L14.499 17.108L13.326 13H23.674ZM22.5 25C22.2033 25 21.9133 25.088 21.6666 25.2528C21.42 25.4176 21.2277 25.6519 21.1142 25.926C21.0006 26.2001 20.9709 26.5017 21.0288 26.7926C21.0867 27.0836 21.2296 27.3509 21.4393 27.5607C21.6491 27.7704 21.9164 27.9133 22.2074 27.9712C22.4983 28.0291 22.7999 27.9993 23.074 27.8858C23.3481 27.7723 23.5824 27.58 23.7472 27.3334C23.912 27.0867 24 26.7967 24 26.5C24 26.1022 23.842 25.7206 23.5607 25.4393C23.2794 25.158 22.8978 25 22.5 25Z" fill="white"/>
</svg>
