<svg width="18" height="18" viewBox="0 0 18 18" fill="none" xmlns="http://www.w3.org/2000/svg">
<path d="M10.0575 8.99989L14.7825 4.2824C14.9237 4.14117 15.003 3.94962 15.003 3.74989C15.003 3.55017 14.9237 3.35862 14.7825 3.21739C14.6412 3.07617 14.4497 2.99683 14.25 2.99683C14.0502 2.99683 13.8587 3.07617 13.7175 3.21739L8.99995 7.9424L4.28245 3.21739C4.14123 3.07617 3.94968 2.99683 3.74995 2.99683C3.55023 2.99683 3.35868 3.07617 3.21745 3.21739C3.07623 3.35862 2.99689 3.55017 2.99689 3.74989C2.99689 3.94962 3.07623 4.14117 3.21745 4.2824L7.94245 8.99989L3.21745 13.7174C3.14716 13.7871 3.09136 13.8701 3.05329 13.9615C3.01521 14.0529 2.99561 14.1509 2.99561 14.2499C2.99561 14.3489 3.01521 14.4469 3.05329 14.5383C3.09136 14.6297 3.14716 14.7127 3.21745 14.7824C3.28718 14.8527 3.37013 14.9085 3.46152 14.9466C3.55292 14.9846 3.65095 15.0042 3.74995 15.0042C3.84896 15.0042 3.94699 14.9846 4.03839 14.9466C4.12978 14.9085 4.21273 14.8527 4.28245 14.7824L8.99995 10.0574L13.7175 14.7824C13.7872 14.8527 13.8701 14.9085 13.9615 14.9466C14.0529 14.9846 14.1509 15.0042 14.25 15.0042C14.349 15.0042 14.447 14.9846 14.5384 14.9466C14.6298 14.9085 14.7127 14.8527 14.7825 14.7824C14.8527 14.7127 14.9085 14.6297 14.9466 14.5383C14.9847 14.4469 15.0043 14.3489 15.0043 14.2499C15.0043 14.1509 14.9847 14.0529 14.9466 13.9615C14.9085 13.8701 14.8527 13.7871 14.7825 13.7174L10.0575 8.99989Z" fill="black"/>
</svg>
