<svg width="36" height="36" viewBox="0 0 36 36" fill="none" xmlns="http://www.w3.org/2000/svg">
<circle cx="18" cy="18" r="18" fill="#F2994A"/>
<path d="M27.1701 8.06012C26.4533 7.93665 25.7274 7.8731 25.0001 7.87012C22.5184 7.86809 20.0886 8.57969 18.0001 9.92012C15.9062 8.59729 13.4767 7.90315 11.0001 7.92012C10.2727 7.9231 9.54689 7.98665 8.83008 8.11012C8.59529 8.1506 8.38267 8.27358 8.2305 8.45691C8.07833 8.64025 7.99662 8.87189 8.00008 9.11012V21.1101C7.99794 21.2571 8.02821 21.4027 8.08873 21.5366C8.14926 21.6705 8.23855 21.7894 8.35026 21.8849C8.46197 21.9803 8.59334 22.05 8.73504 22.089C8.87674 22.1279 9.02528 22.1351 9.17008 22.1101C10.6031 21.862 12.0713 21.9032 13.4882 22.2312C14.905 22.5592 16.2419 23.1675 17.4201 24.0201L17.5401 24.0901H17.6501C17.761 24.1363 17.8799 24.1601 18.0001 24.1601C18.1202 24.1601 18.2392 24.1363 18.3501 24.0901H18.4601L18.5801 24.0201C19.75 23.1484 21.0831 22.5205 22.5002 22.1735C23.9174 21.8265 25.3897 21.7675 26.8301 22.0001C26.9749 22.0251 27.1234 22.0179 27.2651 21.979C27.4068 21.94 27.5382 21.8703 27.6499 21.7749C27.7616 21.6794 27.8509 21.5605 27.9114 21.4266C27.972 21.2927 28.0022 21.1471 28.0001 21.0001V9.00012C27.9897 8.77228 27.9017 8.55483 27.7507 8.38386C27.5998 8.21289 27.3949 8.09866 27.1701 8.06012ZM17.0001 21.3501C15.15 20.3768 13.0906 19.8688 11.0001 19.8701H10.0001V9.87012C10.3331 9.85093 10.667 9.85093 11.0001 9.87012C13.1335 9.86776 15.2203 10.4938 17.0001 11.6701V21.3501ZM26.0001 19.9101H25.0001C22.9096 19.9088 20.8502 20.4168 19.0001 21.3901V11.6701C20.7799 10.4938 22.8667 9.86776 25.0001 9.87012C25.3331 9.85093 25.667 9.85093 26.0001 9.87012V19.9101ZM27.1701 24.0601C26.4533 23.9367 25.7274 23.8731 25.0001 23.8701C22.5184 23.8681 20.0886 24.5797 18.0001 25.9201C15.9116 24.5797 13.4817 23.8681 11.0001 23.8701C10.2727 23.8731 9.54689 23.9367 8.83008 24.0601C8.69991 24.0808 8.57511 24.127 8.46285 24.196C8.35059 24.2651 8.25309 24.3557 8.17595 24.4625C8.09882 24.5694 8.04357 24.6905 8.01339 24.8188C7.98321 24.9471 7.97869 25.0801 8.00008 25.2101C8.0509 25.4698 8.20257 25.6988 8.42188 25.8468C8.64118 25.9949 8.91022 26.05 9.17008 26.0001C10.6031 25.752 12.0713 25.7932 13.4882 26.1212C14.905 26.4492 16.2419 27.0575 17.4201 27.9101C17.5894 28.0307 17.7922 28.0955 18.0001 28.0955C18.208 28.0955 18.4107 28.0307 18.5801 27.9101C19.7583 27.0575 21.0952 26.4492 22.512 26.1212C23.9289 25.7932 25.3971 25.752 26.8301 26.0001C27.0899 26.05 27.359 25.9949 27.5783 25.8468C27.7976 25.6988 27.9493 25.4698 28.0001 25.2101C28.0215 25.0801 28.017 24.9471 27.9868 24.8188C27.9566 24.6905 27.9014 24.5694 27.8242 24.4625C27.7471 24.3557 27.6496 24.2651 27.5373 24.196C27.4251 24.127 27.3003 24.0808 27.1701 24.0601Z" fill="white"/>
</svg>
