<svg width="36" height="36" viewBox="0 0 36 36" fill="none" xmlns="http://www.w3.org/2000/svg">
<circle cx="18" cy="18" r="18" fill="#EB5757"/>
<path d="M24 13H23.65C23.8782 12.5328 23.9979 12.02 24 11.5C24.003 10.8034 23.7975 10.1217 23.4098 9.54287C23.0221 8.96401 22.4701 8.51442 21.8247 8.25198C21.1794 7.98953 20.4703 7.92624 19.7886 8.07025C19.107 8.21426 18.4841 8.55898 18 9.06004C17.5159 8.55898 16.893 8.21426 16.2114 8.07025C15.5297 7.92624 14.8206 7.98953 14.1753 8.25198C13.5299 8.51442 12.9779 8.96401 12.5902 9.54287C12.2025 10.1217 11.997 10.8034 12 11.5C12.0021 12.02 12.1218 12.5328 12.35 13H12C11.2044 13 10.4413 13.3161 9.87868 13.8787C9.31607 14.4413 9 15.2044 9 16V18C9 18.2653 9.10536 18.5196 9.29289 18.7071C9.48043 18.8947 9.73478 19 10 19H11V25C11 25.7957 11.3161 26.5587 11.8787 27.1214C12.4413 27.684 13.2044 28 14 28H22C22.7956 28 23.5587 27.684 24.1213 27.1214C24.6839 26.5587 25 25.7957 25 25V19H26C26.2652 19 26.5196 18.8947 26.7071 18.7071C26.8946 18.5196 27 18.2653 27 18V16C27 15.2044 26.6839 14.4413 26.1213 13.8787C25.5587 13.3161 24.7956 13 24 13ZM17 26H14C13.7348 26 13.4804 25.8947 13.2929 25.7071C13.1054 25.5196 13 25.2653 13 25V19H17V26ZM17 17H11V16C11 15.7348 11.1054 15.4805 11.2929 15.2929C11.4804 15.1054 11.7348 15 12 15H17V17ZM17 13H15.5C15.2033 13 14.9133 12.9121 14.6666 12.7472C14.42 12.5824 14.2277 12.3482 14.1142 12.0741C14.0006 11.8 13.9709 11.4984 14.0288 11.2074C14.0867 10.9164 14.2296 10.6492 14.4393 10.4394C14.6491 10.2296 14.9164 10.0867 15.2074 10.0289C15.4983 9.97098 15.7999 10.0007 16.074 10.1142C16.3481 10.2277 16.5824 10.42 16.7472 10.6667C16.912 10.9134 17 11.2034 17 11.5V13ZM19 11.5C19 11.2034 19.088 10.9134 19.2528 10.6667C19.4176 10.42 19.6519 10.2277 19.926 10.1142C20.2001 10.0007 20.5017 9.97098 20.7926 10.0289C21.0836 10.0867 21.3509 10.2296 21.5607 10.4394C21.7704 10.6492 21.9133 10.9164 21.9712 11.2074C22.0291 11.4984 21.9994 11.8 21.8858 12.0741C21.7723 12.3482 21.58 12.5824 21.3334 12.7472C21.0867 12.9121 20.7967 13 20.5 13H19V11.5ZM23 25C23 25.2653 22.8946 25.5196 22.7071 25.7071C22.5196 25.8947 22.2652 26 22 26H19V19H23V25ZM25 17H19V15H24C24.2652 15 24.5196 15.1054 24.7071 15.2929C24.8946 15.4805 25 15.7348 25 16V17Z" fill="white"/>
</svg>
