<svg width="24" height="24" viewBox="0 0 24 24" fill="none" xmlns="http://www.w3.org/2000/svg">
<path d="M6.88013 12.88C6.58538 13.1546 6.34897 13.4859 6.185 13.8538C6.02103 14.2218 5.93287 14.6191 5.92576 15.0219C5.91865 15.4247 5.99275 15.8248 6.14364 16.1984C6.29452 16.5719 6.5191 16.9113 6.80397 17.1962C7.08885 17.481 7.42818 17.7056 7.80174 17.8565C8.17529 18.0074 8.5754 18.0815 8.97822 18.0744C9.38103 18.0673 9.77828 17.9791 10.1463 17.8151C10.5143 17.6512 10.8455 17.4147 11.1201 17.12C11.6819 16.5575 11.9975 15.795 11.9975 15C11.9975 14.205 11.6819 13.4425 11.1201 12.88C10.5478 12.337 9.78902 12.0343 9.00013 12.0343C8.21123 12.0343 7.4524 12.337 6.88013 12.88V12.88ZM9.71013 15.71C9.61716 15.8037 9.50656 15.8781 9.3847 15.9289C9.26284 15.9797 9.13214 16.0058 9.00013 16.0058C8.86811 16.0058 8.73741 15.9797 8.61555 15.9289C8.49369 15.8781 8.38309 15.8037 8.29013 15.71C8.1964 15.617 8.122 15.5064 8.07123 15.3846C8.02047 15.2627 7.99433 15.132 7.99433 15C7.99433 14.868 8.02047 14.7373 8.07123 14.6154C8.122 14.4936 8.1964 14.383 8.29013 14.29C8.38309 14.1963 8.49369 14.1219 8.61555 14.0711C8.73741 14.0203 8.86811 13.9942 9.00013 13.9942C9.13214 13.9942 9.26284 14.0203 9.3847 14.0711C9.50656 14.1219 9.61716 14.1963 9.71013 14.29C9.80385 14.383 9.87825 14.4936 9.92902 14.6154C9.97979 14.7373 10.0059 14.868 10.0059 15C10.0059 15.132 9.97979 15.2627 9.92902 15.3846C9.87825 15.5064 9.80385 15.617 9.71013 15.71ZM9.00013 8C8.73491 8 8.48056 8.10536 8.29302 8.29289C8.10548 8.48043 8.00013 8.73478 8.00013 9C8.00013 9.26522 8.10548 9.51957 8.29302 9.70711C8.48056 9.89464 8.73491 10 9.00013 10C10.3262 10 11.598 10.5268 12.5357 11.4645C13.4733 12.4021 14.0001 13.6739 14.0001 15C14.0001 15.2652 14.1055 15.5196 14.293 15.7071C14.4806 15.8946 14.7349 16 15.0001 16C15.2653 16 15.5197 15.8946 15.7072 15.7071C15.8948 15.5196 16.0001 15.2652 16.0001 15C16.0001 13.1435 15.2626 11.363 13.9499 10.0503C12.6371 8.7375 10.8566 8 9.00013 8ZM9.00013 4C8.73491 4 8.48056 4.10536 8.29302 4.29289C8.10548 4.48043 8.00013 4.73478 8.00013 5C8.00013 5.26522 8.10548 5.51957 8.29302 5.70711C8.48056 5.89464 8.73491 6 9.00013 6C11.3871 6 13.6763 6.94821 15.3641 8.63604C17.0519 10.3239 18.0001 12.6131 18.0001 15C18.0001 15.2652 18.1055 15.5196 18.293 15.7071C18.4806 15.8946 18.7349 16 19.0001 16C19.2653 16 19.5197 15.8946 19.7072 15.7071C19.8948 15.5196 20.0001 15.2652 20.0001 15C20.0001 12.0826 18.8412 9.28473 16.7783 7.22183C14.7154 5.15893 11.9175 4 9.00013 4V4Z" fill="white"/>
</svg>
