<svg width="36" height="36" viewBox="0 0 36 36" fill="none" xmlns="http://www.w3.org/2000/svg">
<circle cx="18" cy="18" r="18" fill="#56CCF2"/>
<path d="M12.8801 18.88C12.5854 19.1546 12.349 19.4859 12.185 19.8538C12.021 20.2218 11.9329 20.6191 11.9258 21.0219C11.9187 21.4247 11.9928 21.8248 12.1436 22.1984C12.2945 22.5719 12.5191 22.9113 12.804 23.1962C13.0888 23.481 13.4282 23.7056 13.8017 23.8565C14.1753 24.0074 14.5754 24.0815 14.9782 24.0744C15.381 24.0673 15.7783 23.9791 16.1463 23.8151C16.5143 23.6512 16.8455 23.4147 17.1201 23.12C17.6819 22.5575 17.9975 21.795 17.9975 21C17.9975 20.205 17.6819 19.4425 17.1201 18.88C16.5478 18.337 15.789 18.0343 15.0001 18.0343C14.2112 18.0343 13.4524 18.337 12.8801 18.88V18.88ZM15.7101 21.71C15.6172 21.8037 15.5066 21.8781 15.3847 21.9289C15.2628 21.9797 15.1321 22.0058 15.0001 22.0058C14.8681 22.0058 14.7374 21.9797 14.6155 21.9289C14.4937 21.8781 14.3831 21.8037 14.2901 21.71C14.1964 21.617 14.122 21.5064 14.0712 21.3846C14.0205 21.2627 13.9943 21.132 13.9943 21C13.9943 20.868 14.0205 20.7373 14.0712 20.6154C14.122 20.4936 14.1964 20.383 14.2901 20.29C14.3831 20.1963 14.4937 20.1219 14.6155 20.0711C14.7374 20.0203 14.8681 19.9942 15.0001 19.9942C15.1321 19.9942 15.2628 20.0203 15.3847 20.0711C15.5066 20.1219 15.6172 20.1963 15.7101 20.29C15.8039 20.383 15.8782 20.4936 15.929 20.6154C15.9798 20.7373 16.0059 20.868 16.0059 21C16.0059 21.132 15.9798 21.2627 15.929 21.3846C15.8782 21.5064 15.8039 21.617 15.7101 21.71ZM15.0001 14C14.7349 14 14.4806 14.1054 14.293 14.2929C14.1055 14.4804 14.0001 14.7348 14.0001 15C14.0001 15.2652 14.1055 15.5196 14.293 15.7071C14.4806 15.8946 14.7349 16 15.0001 16C16.3262 16 17.598 16.5268 18.5357 17.4645C19.4733 18.4021 20.0001 19.6739 20.0001 21C20.0001 21.2652 20.1055 21.5196 20.293 21.7071C20.4806 21.8946 20.7349 22 21.0001 22C21.2653 22 21.5197 21.8946 21.7072 21.7071C21.8948 21.5196 22.0001 21.2652 22.0001 21C22.0001 19.1435 21.2626 17.363 19.9499 16.0503C18.6371 14.7375 16.8566 14 15.0001 14ZM15.0001 10C14.7349 10 14.4806 10.1054 14.293 10.2929C14.1055 10.4804 14.0001 10.7348 14.0001 11C14.0001 11.2652 14.1055 11.5196 14.293 11.7071C14.4806 11.8946 14.7349 12 15.0001 12C17.3871 12 19.6763 12.9482 21.3641 14.636C23.0519 16.3239 24.0001 18.6131 24.0001 21C24.0001 21.2652 24.1055 21.5196 24.293 21.7071C24.4806 21.8946 24.7349 22 25.0001 22C25.2653 22 25.5197 21.8946 25.7072 21.7071C25.8948 21.5196 26.0001 21.2652 26.0001 21C26.0001 18.0826 24.8412 15.2847 22.7783 13.2218C20.7154 11.1589 17.9175 10 15.0001 10V10Z" fill="white"/>
</svg>
