<svg width="36" height="36" viewBox="0 0 36 36" fill="none" xmlns="http://www.w3.org/2000/svg">
<circle cx="18" cy="18" r="18" fill="#F2C94C"/>
<path d="M15.51 18.48C15.3122 18.48 15.1189 18.5387 14.9545 18.6485C14.79 18.7584 14.6618 18.9146 14.5861 19.0973C14.5105 19.2801 14.4907 19.4811 14.5292 19.6751C14.5678 19.8691 14.6631 20.0473 14.8029 20.1871C14.9428 20.327 15.121 20.4222 15.3149 20.4608C15.5089 20.4994 15.71 20.4796 15.8927 20.4039C16.0754 20.3282 16.2316 20.2 16.3415 20.0356C16.4514 19.8711 16.51 19.6778 16.51 19.48C16.51 19.2148 16.4047 18.9604 16.2171 18.7729C16.0296 18.5854 15.7752 18.48 15.51 18.48ZM15.51 14C15.3122 14 15.1189 14.0587 14.9545 14.1685C14.79 14.2784 14.6618 14.4346 14.5861 14.6173C14.5105 14.8 14.4907 15.0011 14.5292 15.1951C14.5678 15.3891 14.6631 15.5673 14.8029 15.7071C14.9428 15.847 15.121 15.9422 15.3149 15.9808C15.5089 16.0194 15.71 15.9996 15.8927 15.9239C16.0754 15.8482 16.2316 15.72 16.3415 15.5556C16.4514 15.3911 16.51 15.1978 16.51 15C16.51 14.7348 16.4047 14.4804 16.2171 14.2929C16.0296 14.1054 15.7752 14 15.51 14ZM19 16C18.7348 16 18.4805 16.1054 18.2929 16.2929C18.1054 16.4804 18 16.7348 18 17V18C18 18.2652 18.1054 18.5196 18.2929 18.7071C18.4805 18.8947 18.7348 19 19 19C19.2652 19 19.5196 18.8947 19.7071 18.7071C19.8947 18.5196 20 18.2652 20 18V17C20 16.7348 19.8947 16.4804 19.7071 16.2929C19.5196 16.1054 19.2652 16 19 16ZM27.5 14.57C27.1551 14.3715 26.774 14.2437 26.3792 14.1939C25.9843 14.1441 25.5835 14.1734 25.2 14.28C24.801 14.3869 24.4293 14.5778 24.11 14.84L12.51 8.13001C12.358 8.04224 12.1856 7.99603 12.01 7.99603C11.8345 7.99603 11.662 8.04224 11.51 8.13001C11.3556 8.21683 11.2269 8.34314 11.1373 8.49601C11.0477 8.64888 11.0003 8.82281 11 9.00001V22.17C10.4099 22.3691 9.8982 22.7504 9.53875 23.259C9.1793 23.7676 8.99066 24.3773 9.00003 25C8.99975 25.782 9.30481 26.5332 9.85024 27.0935C10.3957 27.6539 11.1383 27.9792 11.92 28H12.5C15.7768 27.9923 18.9931 27.1177 21.8225 25.465C24.652 23.8123 26.9937 21.4404 28.61 18.59C28.9833 17.908 29.0773 17.1077 28.8721 16.3578C28.6669 15.6079 28.1786 14.9669 27.51 14.57H27.5ZM13 10.73L22.89 16.44C21.7928 18.0772 20.326 19.4335 18.608 20.3993C16.89 21.3651 14.969 21.9135 13 22V10.73ZM26.87 17.61C25.3855 20.2257 23.2174 22.3883 20.598 23.8662C17.9786 25.3441 15.0065 26.0817 12 26C11.7348 26 11.4805 25.8947 11.2929 25.7071C11.1054 25.5196 11 25.2652 11 25C10.9992 24.866 11.0254 24.7332 11.0769 24.6096C11.1285 24.4859 11.2043 24.3738 11.3 24.28C11.4879 24.0989 11.7391 23.9984 12 24H12.51C15.0777 23.999 17.5991 23.3161 19.8164 22.0212C22.0337 20.7263 23.8674 18.8658 25.13 16.63C25.1907 16.5203 25.2737 16.4245 25.3736 16.3487C25.4734 16.273 25.588 16.2189 25.71 16.19C25.9622 16.1208 26.2314 16.1531 26.46 16.28C26.6895 16.4033 26.8617 16.6113 26.9402 16.8597C27.0186 17.1081 26.997 17.3773 26.88 17.61H26.87Z" fill="white"/>
</svg>
