<svg width="36" height="36" viewBox="0 0 36 36" fill="none" xmlns="http://www.w3.org/2000/svg">
<circle cx="18" cy="18" r="18" fill="#2D9CDB"/>
<path d="M18 8C16.3277 8.00171 14.6826 8.42276 13.2151 9.22463C11.7477 10.0265 10.5047 11.1836 9.6 12.59C8.32757 14.5856 7.80415 16.9677 8.12283 19.3129C8.44151 21.658 9.58163 23.8142 11.3404 25.3978C13.0992 26.9815 15.3627 27.89 17.7283 27.9618C20.094 28.0336 22.4084 27.264 24.26 25.79C25.8715 24.4929 27.0411 22.7278 27.6076 20.7382C28.174 18.7485 28.1095 16.6321 27.4228 14.6807C26.7361 12.7292 25.4611 11.0388 23.7735 9.84228C22.0859 8.64578 20.0687 8.00212 18 8V8ZM20 10.26C21.3818 10.6177 22.6428 11.3386 23.6521 12.3479C24.6614 13.3572 25.3823 14.6182 25.74 16C24.068 16.0471 22.436 16.5222 21 17.38C20.2789 16.562 19.4746 15.8213 18.6 15.17C19.4811 13.681 19.9633 11.9898 20 10.26V10.26ZM18 10C17.9967 11.435 17.6026 12.8421 16.86 14.07C16.71 13.99 16.57 13.9 16.42 13.83C15.1324 13.1506 13.7555 12.6557 12.33 12.36C13.073 11.6125 13.9565 11.0192 14.9295 10.6142C15.9026 10.2092 16.946 10.0005 18 10V10ZM11 14.16C12.5684 14.3779 14.0874 14.865 15.49 15.6L15.62 15.68C14.8819 16.4174 14.0056 17.0019 13.0412 17.4C12.0768 17.7981 11.0433 18.002 10 18C10.0056 16.6563 10.3495 15.3357 11 14.16V14.16ZM16 25.74C14.6182 25.3823 13.3572 24.6614 12.3479 23.6521C11.3386 22.6428 10.6177 21.3818 10.26 20C11.5957 19.9703 12.9115 19.6707 14.1283 19.119C15.345 18.5673 16.4375 17.7751 17.34 16.79C18.0629 17.3244 18.7327 17.9272 19.34 18.59C18.3274 19.4929 17.5091 20.5924 16.9349 21.8216C16.3607 23.0508 16.0426 24.384 16 25.74V25.74ZM18 26C18.0022 24.9014 18.2306 23.815 18.671 22.8085C19.1115 21.802 19.7545 20.8971 20.56 20.15C20.62 20.23 20.68 20.3 20.73 20.38C21.568 21.6632 22.1896 23.0753 22.57 24.56C21.2316 25.4997 19.6354 26.0027 18 26V26ZM24.21 23C23.7757 21.677 23.1706 20.4163 22.41 19.25L22.2 19C23.3627 18.3532 24.6695 18.0093 26 18C25.9901 19.8219 25.3586 21.5858 24.21 23V23Z" fill="white"/>
</svg>
