<svg width="36" height="36" viewBox="0 0 36 36" fill="none" xmlns="http://www.w3.org/2000/svg">
<circle cx="18" cy="18" r="18" fill="#9B51E0"/>
<path d="M25 15.5H24.68L23.43 12.38C23.2068 11.8253 22.8228 11.3499 22.3275 11.0149C21.8321 10.6799 21.248 10.5006 20.65 10.5H14.65C13.9553 10.498 13.2814 10.7372 12.7434 11.1767C12.2054 11.6162 11.8366 12.2289 11.7 12.91L11.18 15.5H11C10.2044 15.5 9.44129 15.8161 8.87868 16.3787C8.31607 16.9413 8 17.7044 8 18.5V21.5C8 21.7652 8.10536 22.0196 8.29289 22.2071C8.48043 22.3947 8.73478 22.5 9 22.5H10C10 23.2957 10.3161 24.0587 10.8787 24.6213C11.4413 25.1839 12.2044 25.5 13 25.5C13.7956 25.5 14.5587 25.1839 15.1213 24.6213C15.6839 24.0587 16 23.2957 16 22.5H20C20 23.2957 20.3161 24.0587 20.8787 24.6213C21.4413 25.1839 22.2044 25.5 23 25.5C23.7956 25.5 24.5587 25.1839 25.1213 24.6213C25.6839 24.0587 26 23.2957 26 22.5H27C27.2652 22.5 27.5196 22.3947 27.7071 22.2071C27.8946 22.0196 28 21.7652 28 21.5V18.5C28 17.7044 27.6839 16.9413 27.1213 16.3787C26.5587 15.8161 25.7956 15.5 25 15.5V15.5ZM19 12.5H20.65C20.8486 12.5018 21.0421 12.5627 21.206 12.6749C21.3698 12.7871 21.4965 12.9455 21.57 13.13L22.52 15.5H19V12.5ZM13.66 13.3C13.7068 13.0707 13.8324 12.8651 14.0151 12.7189C14.1979 12.5728 14.4261 12.4953 14.66 12.5H17V15.5H13.22L13.66 13.3ZM13 23.5C12.8022 23.5 12.6089 23.4414 12.4444 23.3315C12.28 23.2216 12.1518 23.0654 12.0761 22.8827C12.0004 22.7 11.9806 22.4989 12.0192 22.3049C12.0578 22.1109 12.153 21.9328 12.2929 21.7929C12.4327 21.6531 12.6109 21.5578 12.8049 21.5192C12.9989 21.4806 13.2 21.5004 13.3827 21.5761C13.5654 21.6518 13.7216 21.78 13.8315 21.9444C13.9414 22.1089 14 22.3022 14 22.5C14 22.7652 13.8946 23.0196 13.7071 23.2071C13.5196 23.3947 13.2652 23.5 13 23.5ZM23 23.5C22.8022 23.5 22.6089 23.4414 22.4444 23.3315C22.28 23.2216 22.1518 23.0654 22.0761 22.8827C22.0004 22.7 21.9806 22.4989 22.0192 22.3049C22.0578 22.1109 22.153 21.9328 22.2929 21.7929C22.4327 21.6531 22.6109 21.5578 22.8049 21.5192C22.9989 21.4806 23.2 21.5004 23.3827 21.5761C23.5654 21.6518 23.7216 21.78 23.8315 21.9444C23.9414 22.1089 24 22.3022 24 22.5C24 22.7652 23.8946 23.0196 23.7071 23.2071C23.5196 23.3947 23.2652 23.5 23 23.5ZM26 20.5H25.22C24.9388 20.1907 24.5961 19.9435 24.2138 19.7743C23.8315 19.6052 23.418 19.5178 23 19.5178C22.582 19.5178 22.1685 19.6052 21.7862 19.7743C21.4039 19.9435 21.0612 20.1907 20.78 20.5H15.22C14.9388 20.1907 14.5961 19.9435 14.2138 19.7743C13.8315 19.6052 13.418 19.5178 13 19.5178C12.582 19.5178 12.1685 19.6052 11.7862 19.7743C11.4039 19.9435 11.0612 20.1907 10.78 20.5H10V18.5C10 18.2348 10.1054 17.9804 10.2929 17.7929C10.4804 17.6054 10.7348 17.5 11 17.5H25C25.2652 17.5 25.5196 17.6054 25.7071 17.7929C25.8946 17.9804 26 18.2348 26 18.5V20.5Z" fill="white"/>
</svg>
